<svg xmlns="http://www.w3.org/2000/svg" width="32" height="32" viewBox="0 0 32 32">
    <g fill="none" fill-rule="evenodd">
        <circle cx="16" cy="16" r="16" fill="#EAEEF1"/>
        <g fill="#000" fill-rule="nonzero" opacity=".126">
            <path d="M22.864 20.647a.652.652 0 0 0-.913.124c-.042.055-.085.11-.128.163-.654.798-1.533 1.446-2.619 1.927a.535.535 0 0 0-.016.008c-1.713.816-3.717.928-5.64.315-1.687-.549-3.06-1.61-4.08-3.157a7.605 7.605 0 0 1-1.185-3.924v-.102h.798c.3 0 .451-.362.239-.574l-1.451-1.45a.338.338 0 0 0-.477 0l-1.451 1.45a.337.337 0 0 0 .238.574h.8c.01 1.679.477 3.266 1.388 4.722l.008.012c1.188 1.803 2.793 3.043 4.774 3.687.95.302 1.917.452 2.87.452a8.652 8.652 0 0 0 3.722-.828c1.357-.604 2.45-1.44 3.247-2.488a.65.65 0 0 0-.124-.911zM15.981 17.125c1.47 0 2.661-1.445 2.661-3.229s-.391-3.23-2.66-3.23c-2.27 0-2.662 1.446-2.662 3.23s1.191 3.23 2.661 3.23z"/>
            <path d="M10.956 22.1c-.001-.194-.003-.054 0 0zM21.007 22.142c.004-.03.001-.209 0 0z"/>
            <path d="M21.001 21.926c-.049-3.107-.455-3.992-3.563-4.553 0 0-.437.557-1.457.557s-1.457-.557-1.457-.557c-3.074.555-3.505 1.427-3.561 4.452-.005.247-.007.26-.008.231v.327s.74 1.49 5.026 1.49 5.026-1.49 5.026-1.49v-.242c0 .018-.002-.016-.006-.215zM25.815 15.868h-.8a9.005 9.005 0 0 0-1.228-4.536 9.094 9.094 0 0 0-2.805-2.967 9.035 9.035 0 0 0-8.415-.824 9.06 9.06 0 0 0-3.585 2.67.652.652 0 0 0 1.013.818 7.762 7.762 0 0 1 3.067-2.286 7.724 7.724 0 0 1 9.6 3.245 7.7 7.7 0 0 1 1.051 3.88h-.8c-.3 0-.45.362-.238.574l1.45 1.45a.338.338 0 0 0 .478 0l1.45-1.45a.337.337 0 0 0-.238-.574z"/>
        </g>
    </g>
</svg>
