<svg xmlns="http://www.w3.org/2000/svg" width="24" height="24" viewBox="0 0 24 24">
    <g fill="none" fill-rule="evenodd">
        <path d="M0 0h24v24H0z"/>
        <path stroke="#FFF" stroke-linecap="round" stroke-width="2" d="M6.5 13l5.196 3-2.056 4.163a.5.5 0 0 1-.895.004l-1.163-2.31-2.725.156a.5.5 0 0 1-.477-.72L6.5 13zM17.196 13L12 16l3.021 4.37a.5.5 0 0 0 .858-.06l1.235-2.452 2.56.146a.5.5 0 0 0 .44-.784L17.196 13z"/>
        <circle cx="12" cy="9" r="6" stroke="#FFF" stroke-linecap="round" stroke-width="2"/>
    </g>
</svg>
