<svg xmlns="http://www.w3.org/2000/svg" xmlns:xlink="http://www.w3.org/1999/xlink" width="70" height="70"><defs><circle id="a" cx="35" cy="35" r="28"/></defs><g fill="none" fill-rule="evenodd"><path fill="#542E5F" d="M0 0h70v70H0z"/><mask id="b" fill="#fff"><use xlink:href="#a"/></mask><use fill="#542E5F" xlink:href="#a"/><g fill="#FFFFFE" mask="url(#b)"><path d="M12.322 34.62c-.03-.475-.297-.737-.748-.737-.566 0-.936.447-.936 1.114 0 .674.37 1.108.953 1.108.472 0 .731-.282.754-.835h-.357c-.029.324-.164.481-.414.481-.317 0-.516-.287-.516-.756 0-.467.199-.757.521-.757.21 0 .35.14.39.381h.353m4.275-.381c.333 0 .537.281.537.752 0 .474-.204.761-.537.761-.335 0-.535-.287-.535-.761 0-.47.2-.752.535-.752zm0-.355c-.582 0-.958.437-.958 1.107 0 .675.376 1.115.958 1.115.578 0 .956-.44.956-1.115 0-.67-.378-1.107-.956-1.107zm4.416.042v2.138h1.337v-.353h-.917v-1.785h-.42m4.729 0v2.138h1.336v-.353h-.923v-1.785h-.413m5.138.855v-.505h.927v-.35h-1.336v2.138h1.371v-.353h-.962v-.58h.846v-.35h-.846m5.933-.16c-.025-.475-.297-.737-.747-.737-.562 0-.933.447-.933 1.114 0 .674.37 1.108.954 1.108.472 0 .726-.282.754-.835h-.362c-.03.324-.162.481-.406.481-.322 0-.52-.287-.52-.756 0-.467.198-.757.52-.757.209 0 .353.14.386.381h.354m3.242-.694v.35h.56v1.788h.408v-1.788h.559v-.35h-1.527m4.909 2.138h.405v-2.138h-.405zm4.825-1.825c.335 0 .535.281.535.752 0 .474-.2.761-.535.761-.331 0-.535-.287-.535-.761 0-.47.204-.752.535-.752zm0-.355c-.577 0-.96.437-.96 1.107 0 .675.383 1.115.96 1.115.578 0 .956-.44.956-1.115 0-.67-.378-1.107-.956-1.107zm4.417.042v2.138h.387v-1.508l.884 1.508h.412v-2.138h-.39v1.508l-.86-1.508h-.433m-43.9-11.782v10.713h7.661v-2.2H13.12v-8.513h-2.814m17.728 6.453H26.01l1.02-3.627 1.004 3.627zm-2.355-6.453l-3.967 10.713h2.912l.702-2.124h3.409l.685 2.124h2.933l-3.985-10.713h-2.69zm13.907 8.512v-6.312h.844c2.097 0 2.991.949 2.991 3.146 0 2.218-.894 3.166-2.99 3.166h-.845zm-2.824-8.512v10.713h3.06c1.706 0 2.836-.178 3.678-.564 1.786-.835 2.838-2.618 2.838-4.803 0-1.877-.77-3.432-2.17-4.398-1.003-.693-2.192-.948-4.346-.948h-3.06zm12.378 0l3.824 6.49v4.223h2.817v-4.223l3.824-6.49H56.47l-2.042 4.159-2.1-4.159H49.14m-35.794 24.34l-.574-1.581h-.01l-.542 1.58h1.126zm-.096-2.363l1.55 3.875h-.891l-.328-.87h-1.608l-.331.87h-.845l1.554-3.875h.9zm3.927 0v1.655h.017l1.407-1.655h.943l-1.626 1.754 1.725 2.121h-1.001l-1.448-1.927h-.017v1.927h-.79V44.12h.79m6.904 3.754a3.225 3.225 0 0 1-1.008.164c-.968 0-2.026-.549-2.026-1.959 0-1.335.947-2.003 2.17-2.003.305 0 .57.039.864.133l-.033.662a2.108 2.108 0 0 0-.776-.143c-.874 0-1.39.547-1.39 1.34 0 .933.633 1.318 1.335 1.318.346 0 .62-.085.813-.173l.051.66m4.054-3.753v.685h-1.538v.877h1.397v.633h-1.397v.992h1.538v.688h-2.33V44.12h2.33m4.675 3.754a3.213 3.213 0 0 1-1.006.164c-.971 0-2.028-.549-2.028-1.959 0-1.335.947-2.003 2.171-2.003.307 0 .57.039.863.133l-.033.662a2.09 2.09 0 0 0-.772-.143c-.876 0-1.394.547-1.394 1.34 0 .933.637 1.318 1.336 1.318.347 0 .619-.085.814-.173l.05.66m4.621.001a3.222 3.222 0 0 1-1.006.164c-.968 0-2.028-.549-2.028-1.959 0-1.335.947-2.003 2.17-2.003.309 0 .571.039.864.133l-.032.662a2.099 2.099 0 0 0-.773-.143c-.876 0-1.392.547-1.392 1.34 0 .933.632 1.318 1.334 1.318.348 0 .619-.085.815-.173l.048.66m2.278-3.753l.774 1.65.17.41h.013l.171-.417.738-1.643h.78l-1.56 3.3c-.217.459-.514.618-.923.618-.186 0-.385-.032-.591-.122l.088-.586a.69.69 0 0 0 .334.083c.15 0 .329-.005.44-.261l.111-.26-1.43-2.772h.885m6.448 2.363l-.573-1.581h-.012l-.54 1.58h1.125zm-.096-2.363l1.548 3.875h-.89l-.327-.87h-1.61l-.328.87h-.847l1.553-3.875h.901zm4.289 1.81c.476 0 .662-.329.662-.622 0-.32-.206-.58-.662-.58h-.362v1.202h.362zm0-1.81c1.415 0 1.496.967 1.496 1.213 0 .51-.355 1.204-1.353 1.204h-.505v1.458h-.79V44.12h1.152zm6.554 3.875h.79V44.12h-.79v3.875zm-2.539-.61h.521c.373 0 .653-.227.653-.602 0-.25-.124-.604-.714-.604h-.46v1.207zm0-1.815h.544c1.342 0 1.438.93 1.438 1.173 0 .599-.341 1.252-1.46 1.252h-1.315V44.12h.793v1.45z"/></g><path stroke="#FFF" stroke-linecap="square" stroke-width=".5" d="M11 41h48" mask="url(#b)"/></g></svg>